<?xml version="1.0" standalone="no"?>
<!DOCTYPE svg PUBLIC "-//W3C//DTD SVG 20010904//EN"
 "http://www.w3.org/TR/2001/REC-SVG-20010904/DTD/svg10.dtd">
<svg version="1.0" xmlns="http://www.w3.org/2000/svg"
 width="256.000000pt" height="256.000000pt" viewBox="0 0 256.000000 256.000000"
 preserveAspectRatio="xMidYMid meet">

<g transform="translate(0.000000,256.000000) scale(0.100000,-0.100000)"
fill="#000000" stroke="none">
<path d="M330 2240 c-19 -19 -20 -33 -20 -435 0 -402 1 -416 20 -435 19 -19
33 -20 441 -20 271 0 427 4 440 10 18 10 19 26 19 442 0 399 -1 432 -17 444
-14 11 -105 13 -440 14 -410 0 -424 -1 -443 -20z m640 -430 l0 -50 -185 0
-185 0 0 50 0 50 185 0 185 0 0 -50z"/>
<path d="M1352 2240 l-22 -21 0 -934 c0 -922 0 -935 20 -955 19 -19 33 -20
433 -20 357 0 416 2 435 16 l22 15 0 944 0 944 -22 15 c-19 14 -78 16 -433 16
-400 0 -412 -1 -433 -20z m663 -850 l0 -45 -217 -3 -218 -2 0 50 0 50 218 -2
217 -3 0 -45z m5 -195 l0 -45 -220 0 -220 0 0 45 0 45 220 0 220 0 0 -45z"/>
<path d="M350 1233 c-39 -14 -40 -24 -40 -455 0 -405 1 -419 20 -438 19 -19
33 -20 448 -20 403 0 430 1 445 18 15 17 17 62 17 444 0 384 -2 427 -17 439
-13 11 -97 14 -437 16 -232 1 -428 -1 -436 -4z m470 -348 l0 -75 75 0 75 0 0
-45 0 -45 -75 0 -75 0 0 -75 0 -75 -40 0 -40 0 0 75 0 74 -77 3 -78 3 0 40 0
40 78 3 77 3 0 74 0 75 40 0 40 0 0 -75z"/>
</g>
</svg>
